# xmcd
#
# Track frame offsets: 
#        150
#        16293
#        20061
#        38774
#        54427
#        75153
#        92643
#        107578
#        125282
#        144195
#        158567
#        172887
#        189093
#        209034
#        231270
#
# Disc length: 3349 seconds
#
# Revision: 0
# Processed by: cddbd v1.5.2PL0 Copyright (c) Steve Scherf et al.
# Submitted via: ExactAudioCopy v0.95b3
#
DISCID=ad0d130f
DTITLE=Kaz Lux and HotchPotch - Osmosis
DYEAR=1900
DGENRE=Blues
TTITLE0=Summernight Madness
TTITLE1=Prologue
TTITLE2=Walking A Mile In Jay's Shoes
TTITLE3=Toast
TTITLE4=Genesis
TTITLE5=Soulmates
TTITLE6=Osmosis
TTITLE7=The Rape
TTITLE8=The Night John Lennon Died
TTITLE9=Spoon
TTITLE10=Snow In The Desert
TTITLE11=A Hundred Pounds Of Clay
TTITLE12=Wayfaring Stranger
TTITLE13=Minimal Minor Blues
TTITLE14=Slowly It Goes
EXTD=
EXTT0=
EXTT1=
EXTT2=
EXTT3=
EXTT4=
EXTT5=
EXTT6=
EXTT7=
EXTT8=
EXTT9=
EXTT10=
EXTT11=
EXTT12=
EXTT13=
EXTT14=
PLAYORDER=
